# xmcd
#
# Track frame offsets:
#	150
#	15702
#	33285
#	48879
#	62623
#	82810
#	96393
#	117237
#	134410
#	159759
#	171870
#	184947
#
# Disc length: 2575 seconds
#
# Revision: 0
# Processed by: cddbd v1.5.2PL0 Copyright (c) Steve Scherf et al.
# Submitted via: EasyCDDAExtractor 2010.6.0.0
#
DISCID=900a0d0c
DTITLE=Chebaleba - Himaa Ennen Hesarii
DYEAR=2011
DGENRE=hip-Hop
TTITLE0=Himaa Ennen Hesarii
TTITLE1=Pökötti feat. Ricowamos
TTITLE2=E.M.H feat. Juno, Jare&Villegalle
TTITLE3=Kesäfiilistely feat. Ricowamos
TTITLE4=Kuuri pääl
TTITLE5=Muuttomies
TTITLE6=Takatalvi feat. Juno
TTITLE7=Vois olla huonomminki feat. Stepa, Ricowamos
TTITLE8=Sitä saa mitä tilaa feat. Tantr slangrr
TTITLE9=Hot dog
TTITLE10=Leikki on sun duunii
TTITLE11=Kiitokset
EXTD=
EXTT0=
EXTT1=
EXTT2=
EXTT3=
EXTT4=
EXTT5=
EXTT6=
EXTT7=
EXTT8=
EXTT9=
EXTT10=
EXTT11=
PLAYORDER=
